<svg width="104" height="336" viewBox="0 0 104 336" fill="none" xmlns="http://www.w3.org/2000/svg">
<path fill-rule="evenodd" clip-rule="evenodd" d="M22.1447 321.758C22.5115 321.47 22.6137 321.128 22.7753 320.833C24.6902 317.347 26.8837 314.05 29.4106 310.984C30.4572 309.712 31.5595 308.485 32.6618 307.261C33.1299 306.741 33.662 306.279 34.1653 305.792C35.3104 304.682 36.6616 304.653 38.0722 305.089C38.3879 305.186 38.6823 305.425 38.9331 305.659C39.2135 305.919 39.1996 306.312 38.9628 306.614C38.8764 306.724 38.7696 306.816 38.6675 306.913C34.0789 311.229 30.4089 316.247 27.4325 321.796C25.2864 325.799 23.5637 329.983 22.3527 334.366C22.0686 335.396 21.5095 335.797 20.5465 335.944C19.7998 336.057 19.0829 335.989 18.3641 335.827C17.7364 335.686 17.3528 335.322 17.1699 334.657C16.5235 332.282 15.7119 329.964 14.7684 327.691C12.1207 321.314 8.57882 315.493 4.03767 310.302C3.04679 309.168 1.95282 308.127 0.904364 307.045C0.856073 306.995 0.798497 306.954 0.748349 306.905C0.0667116 306.25 0.134503 305.736 0.962869 305.258C2.20542 304.54 4.08039 304.725 5.17063 305.722C6.75029 307.167 8.18879 308.751 9.56692 310.388C12.1477 313.458 14.3987 316.756 16.3517 320.261C16.5142 320.552 16.6117 320.901 17.0269 321.178C17.0269 320.899 17.038 320.738 17.025 320.578C16.8755 318.827 16.7511 317.074 16.5644 315.326C16.3489 313.3 16.1233 311.273 15.8215 309.258C15.3256 305.958 14.8231 302.658 14.2186 299.377C12.5136 290.113 10.1566 281.002 7.72445 271.909C6.3361 266.719 5.01833 261.51 3.95687 256.24C3.17958 252.382 2.54531 248.502 2.12741 244.584C1.65936 240.207 1.44577 235.823 1.55814 231.424C1.72623 224.823 2.60381 218.33 4.62922 212.025C6.19681 207.143 8.34016 202.55 11.3787 198.405C11.4605 198.293 11.5255 198.169 11.636 197.99C11.466 197.599 11.2905 197.183 11.1066 196.773C8.25751 190.421 5.83927 183.913 3.97173 177.199C2.66139 172.489 1.65008 167.718 0.958225 162.878C0.120572 157.016 -0.177529 151.121 0.101998 145.207C0.682412 132.964 3.55848 121.32 9.29389 110.454C13.2036 103.046 18.2638 96.5559 24.666 91.1518C24.7738 91.0612 24.8806 90.9715 24.9818 90.8743C25.031 90.8266 25.0644 90.7631 25.1452 90.6519C25.0969 90.4258 25.0551 90.152 24.979 89.8876C23.7829 85.6916 22.9369 81.4227 22.362 77.0995C21.7779 72.7017 21.5504 68.2814 21.5931 63.8452C21.6237 60.7143 21.7937 57.5899 22.1391 54.4795C22.8709 47.8953 24.2314 41.4438 26.2763 35.1427C29.7597 24.4092 34.9231 14.582 41.9614 5.77314C43.2736 4.12966 44.7028 2.58242 46.0559 0.971641C46.6196 0.299861 47.317 0.00835038 48.1686 0.000875777C48.7648 -0.00473017 49.3573 0.0111514 49.9284 0.212031C50.1578 0.293318 50.3927 0.377407 50.5989 0.503541C51.1152 0.81654 51.1988 1.26315 50.845 1.74246C50.741 1.88261 50.6184 2.00874 50.4986 2.13768C40.912 12.5377 34.3548 24.6493 30.3773 38.2166C29.001 42.9098 28.0166 47.6888 27.3814 52.538C26.5949 58.5494 26.3813 64.587 26.7509 70.6387C27.0871 76.1213 27.8811 81.5394 29.2081 86.8726C29.249 87.037 29.3066 87.1987 29.3669 87.3958C29.7857 87.4098 30.0291 87.1248 30.3058 86.9445C33.5691 84.8152 37.0089 83.0288 40.6167 81.5684C45.4346 79.6185 50.4113 78.2786 55.5663 77.6022C59.2512 77.1182 62.9473 76.9687 66.6518 77.2369C75.1017 77.8489 82.9739 80.2575 90.0577 85.0207C94.3909 87.934 97.9662 91.5909 100.593 96.1486C102.315 99.1356 103.428 102.335 103.835 105.765C104.324 109.872 103.722 113.833 102.073 117.615C99.0741 124.49 94.077 129.385 87.3201 132.487C84.3753 133.838 81.2772 134.683 78.0613 135.039C67.8906 136.163 58.5798 133.72 50.0677 128.094C45.4068 125.014 41.4962 121.114 38.0759 116.705C33.8319 111.233 30.5695 105.2 27.9906 98.7796C27.5458 97.6724 27.1474 96.5466 26.7239 95.431C26.6385 95.2039 26.5382 94.9816 26.4444 94.7573C26.0275 94.8143 25.8352 95.1376 25.5919 95.3721C23.2155 97.665 21.0628 100.157 19.1006 102.815C14.5158 109.03 11.193 115.884 8.88528 123.251C7.49693 127.684 6.52834 132.209 5.88292 136.813C5.05548 142.719 4.87254 148.649 5.17807 154.594C5.58296 162.489 7.01589 170.214 9.19453 177.805C10.6785 182.975 12.4978 188.025 14.5798 192.982C14.7136 193.298 14.8705 193.602 15.059 194.002C15.3794 193.705 15.6348 193.476 15.8809 193.238C20.6756 188.608 26.2225 185.25 32.5708 183.248C36.4684 182.019 40.4626 181.4 44.5468 181.501C49.4325 181.621 54.0944 182.702 58.4554 184.982C62.2072 186.944 65.3238 189.661 67.9472 192.979C71.8745 197.952 74.5528 203.549 76.1752 209.669C77.336 214.046 77.8523 218.502 77.6425 223.031C77.4781 226.564 76.8698 230.012 75.5576 233.311C74.095 236.991 71.8532 240.067 68.6019 242.352C65.8243 244.303 62.7412 245.439 59.3738 245.805C53.8047 246.41 48.6171 245.156 43.7129 242.546C41.0374 241.122 38.661 239.283 36.4786 237.182C34.1746 234.962 32.1371 232.509 30.2584 229.922C26.958 225.375 23.9649 220.627 21.0777 215.809C18.7133 211.867 16.4966 207.839 14.421 203.734C14.265 203.425 14.0951 203.123 13.9112 202.779C13.5611 202.949 13.471 203.263 13.3299 203.517C11.5283 206.749 10.165 210.169 9.14159 213.723C8.0597 217.478 7.36878 221.309 6.95831 225.197C6.49769 229.544 6.4494 233.9 6.62585 238.259C6.80044 242.545 7.28613 246.804 7.95012 251.045C8.94286 257.372 10.5179 263.564 12.13 269.749C13.7589 276.001 15.398 282.251 16.9526 288.521C18.2118 293.602 19.1962 298.742 20.0348 303.912C20.683 307.902 21.1993 311.909 21.6154 315.928C21.7965 317.675 21.9153 319.429 22.0648 321.181C22.076 321.341 22.1076 321.499 22.1447 321.758ZM30.459 91.2331C30.5658 92.0385 30.8648 92.7523 31.1063 93.4792C33.5951 101.001 37.0442 108.032 41.706 114.441C44.9499 118.901 48.7537 122.801 53.2549 125.987C58.1601 129.46 63.5166 131.815 69.5074 132.597C73.1561 133.073 76.7649 132.896 80.3022 131.854C87.1046 129.849 92.4045 125.85 95.9743 119.649C97.9523 116.209 99.0212 112.488 99.0138 108.493C99.0073 105.024 98.1613 101.744 96.6568 98.6367C94.5506 94.2864 91.5065 90.6996 87.7138 87.7649C81.4379 82.9092 74.2714 80.393 66.4233 79.7773C62.0075 79.4307 57.6215 79.7483 53.2883 80.6584C45.1616 82.3626 37.7843 85.7579 31.1017 90.6977C30.8816 90.8603 30.6791 91.049 30.459 91.2331ZM16.8857 198.198C17.4828 199.434 18.0521 200.638 18.6409 201.832C22.5933 209.84 27.1576 217.488 32.0721 224.93C33.5422 227.156 35.0717 229.339 36.7442 231.417C38.7055 233.855 40.835 236.129 43.2838 238.085C45.8497 240.134 48.6394 241.779 51.7997 242.724C54.282 243.465 56.8033 243.709 59.359 243.182C62.1793 242.599 64.5613 241.196 66.5849 239.155C68.1841 237.542 69.3895 235.661 70.32 233.594C72.1875 229.444 72.8469 225.064 72.7401 220.547C72.6695 217.587 72.2655 214.666 71.5792 211.786C70.3228 206.517 68.3382 201.552 65.4101 196.987C63.6383 194.225 61.5571 191.725 59.0451 189.608C54.5587 185.828 49.4177 183.872 43.5355 183.958C40.4329 184.003 37.4231 184.56 34.5006 185.58C27.6647 187.969 22.0017 192.064 17.3361 197.596C17.2005 197.755 17.0854 197.93 16.8857 198.198Z" fill="black"/>
</svg>
