<?xml version="1.0" encoding="utf-8"?>
<!-- Generator: Adobe Illustrator 16.0.3, SVG Export Plug-In . SVG Version: 6.00 Build 0)  -->
<!DOCTYPE svg PUBLIC "-//W3C//DTD SVG 1.1//EN" "http://www.w3.org/Graphics/SVG/1.1/DTD/svg11.dtd">
<svg version="1.1" id="Capa_1" xmlns="http://www.w3.org/2000/svg" xmlns:xlink="http://www.w3.org/1999/xlink" x="0px" y="0px"
	 width="32px" height="32px" viewBox="0 0 32 32" enable-background="new 0 0 32 32" xml:space="preserve">
<g>
	<polygon fill="#C157A2" stroke="#000000" stroke-width="0.5" stroke-miterlimit="10" points="3.13,31.131 3.13,0.864 14.51,7.554 
		16,13.222 17.492,7.554 28.87,0.864 28.87,31.131 26.183,29.551 21.95,16.928 15.831,23.664 10.052,16.928 5.818,29.551 	"/>
	<polygon fill="none" stroke="#000000" stroke-width="0.5" stroke-miterlimit="10" points="17.283,7.554 14.568,17.687 
		9.139,12.256 2.658,15.999 15.937,23.664 21.822,16.928 26.134,29.551 28.87,31.131 28.87,0.864 	"/>
	<polygon fill="none" stroke="#000000" stroke-width="0.5" stroke-miterlimit="10" points="14.718,7.56 17.433,17.69 22.863,12.262 
		29.343,16.002 16.063,23.669 10.178,16.933 5.868,29.555 3.13,31.136 3.13,0.869 	"/>
</g>
</svg>
