<svg width="29" height="32" viewBox="0 0 29 32" fill="none" xmlns="http://www.w3.org/2000/svg">
<path d="M1.472 31.131V0.863998L12.852 7.554L14.342 13.222L15.834 7.554L27.212 0.863998V31.131L24.525 29.551L20.292 16.928L14.173 23.664L8.394 16.928L4.16 29.551L1.472 31.131Z" fill="#C157A2" stroke="black" stroke-width="0.5" stroke-miterlimit="10"/>
<path d="M15.625 7.554L12.91 17.687L7.481 12.256L1 15.999L14.279 23.664L20.164 16.928L24.476 29.551L27.212 31.131V0.863998L15.625 7.554Z" stroke="black" stroke-width="0.5" stroke-miterlimit="10"/>
<path d="M13.06 7.56L15.775 17.69L21.205 12.262L27.685 16.002L14.405 23.669L8.52 16.933L4.21 29.555L1.472 31.136V0.869003L13.06 7.56Z" stroke="black" stroke-width="0.5" stroke-miterlimit="10"/>
</svg>
