<svg width="32" height="31" viewBox="0 0 32 31" fill="none" xmlns="http://www.w3.org/2000/svg">
<path d="M1.08179 30.4063V0.411133L13.8755 7.04105L15.5506 12.6581L17.2279 7.04105L30.0194 0.411133V30.4063L26.9986 28.8405L22.2397 16.3309L15.3606 23.0064L8.86369 16.3309L4.10371 28.8405L1.08179 30.4063Z" fill="#C157A2" stroke="black" stroke-width="0.5" stroke-miterlimit="10"/>
<path d="M16.993 7.04105L13.9407 17.083L7.83726 11.7008L0.551147 15.4102L15.4798 23.0064L22.0958 16.3309L26.9435 28.8405L30.0194 30.4063V0.411133L16.993 7.04105Z" stroke="black" stroke-width="0.5" stroke-miterlimit="10"/>
<path d="M14.1093 7.04692L17.1616 17.0859L23.2662 11.7067L30.5512 15.4131L15.6214 23.0112L9.00534 16.3357L4.15992 28.8444L1.08179 30.4112V0.416016L14.1093 7.04692Z" stroke="black" stroke-width="0.5" stroke-miterlimit="10"/>
</svg>
