<svg width="518" height="345" viewBox="0 0 518 345" fill="none" xmlns="http://www.w3.org/2000/svg">
<g clip-path="url(#clip0_57_22)">
<path d="M181.991 198.72C181.991 198.72 210.308 188.543 219.977 204.24C229.647 219.938 216.351 242.19 209.617 252.54C202.883 262.89 187.343 276.345 146.076 265.133C104.809 253.92 86.8513 190.095 87.0239 145.763C87.1966 101.43 89.7866 46.0575 123.629 35.88C157.472 25.7025 161.961 76.0725 161.961 76.0725C161.961 76.0725 185.559 58.8798 197.301 85.3302C209.042 111.781 210.423 148.12 181.991 198.72Z" fill="#61D5D8"/>
<path d="M141.932 231.84C141.932 231.84 135.543 234.686 137.27 239.689C138.997 244.691 146.853 245.468 152.896 245.468C158.94 245.468 184.667 245.726 186.307 232.185C187.948 218.644 167.314 223.474 167.314 223.474C167.314 223.474 150.479 227.183 141.932 231.84Z" fill="#B6EBF3"/>
<path d="M130.622 206.655C130.622 206.655 122.852 210.019 127.255 216.056C131.658 222.094 143.141 217.005 143.141 217.005C143.141 217.005 154.623 213.641 153.846 207.776C153.069 201.911 144.436 200.445 130.622 206.655Z" fill="#B6EBF3"/>
<path d="M103.945 187.939C103.945 187.939 111.456 198.116 136.579 168.101C161.702 138.086 168.264 121.354 168.264 121.354C168.264 121.354 173.271 109.883 173.703 101.085C174.134 92.2875 173.789 75.6413 160.753 78.1425C147.716 80.6438 133.558 103.241 133.558 103.241C133.558 103.241 111.802 138.776 106.622 151.541C101.442 164.306 96.0025 180.176 103.945 187.939Z" fill="#B6EBF3"/>
<path d="M99.2832 121.44C99.2832 121.44 104.377 125.408 114.651 107.468C124.924 89.5275 137.529 58.9088 125.356 55.1138C113.183 51.3188 101.01 84.3525 101.01 84.3525C101.01 84.3525 89.9592 115.92 99.2832 121.44Z" fill="#B6EBF3"/>
<path d="M82.7647 185.955C82.7647 185.955 78.0454 185.38 76.3187 190.67C74.5921 195.961 73.4407 206.771 80.8081 208.036C88.1754 209.3 88.7507 195.5 87.7147 191.59C86.6787 187.681 85.0674 186.53 82.7647 185.955Z" fill="black" stroke="black" stroke-miterlimit="10"/>
<path d="M82.88 200.56C82.88 200.56 102.679 256.68 145.27 264.96C145.27 264.96 112.809 247.94 85.5273 196.65L82.88 200.56Z" fill="black" stroke="black" stroke-miterlimit="10"/>
<path d="M138.819 262.174C141.633 263.904 144.922 264.732 148.15 265.375C151.407 265.983 154.725 266.223 158.036 266.274L160.522 266.277L163.006 266.17C164.663 266.134 166.312 265.914 167.965 265.799C169.615 265.64 171.258 265.404 172.903 265.21L175.351 264.795C176.143 264.609 176.939 264.456 177.729 264.248C180.899 263.423 183.965 262.227 186.818 260.655C189.654 259.054 192.29 257.105 194.595 254.813C199.206 250.242 202.673 244.506 204.657 238.336C204.906 237.566 205.125 236.789 205.306 236.013C205.354 235.819 205.394 235.627 205.434 235.434L205.49 235.157L205.544 234.849C205.62 234.437 205.693 234.027 205.743 233.639C205.971 232.065 206.094 230.445 206.08 228.856C206.048 227.265 205.861 225.692 205.492 224.18C205.129 222.663 204.485 221.255 203.677 219.976C202.876 218.677 201.732 217.658 200.532 216.737C199.244 215.913 197.879 215.21 196.356 214.755C195.964 214.634 195.553 214.48 195.175 214.388L194.059 214.139C193.695 214.041 193.307 213.99 192.916 213.944C192.526 213.9 192.141 213.828 191.749 213.797C190.182 213.681 188.588 213.73 186.967 213.875C183.721 214.192 180.352 214.707 176.955 214.853C173.555 215.01 170.146 214.851 166.777 214.491C163.404 214.153 160.074 213.421 156.841 212.895C153.601 212.373 150.306 212.065 147.019 211.967C143.73 211.878 140.431 212.011 137.189 212.471C135.571 212.707 133.967 213.032 132.418 213.491C130.882 213.958 129.361 214.567 128.158 215.467C127.564 215.913 127.07 216.465 126.912 217.044C126.744 217.612 126.899 218.227 127.301 218.812C127.404 218.956 127.491 219.108 127.63 219.239L127.976 219.61C128.299 219.866 128.634 220.167 128.93 220.298C129.514 220.666 130.307 220.917 131.049 221.12C132.584 221.491 134.224 221.55 135.846 221.45C137.472 221.348 139.097 221.09 140.698 220.72C143.898 219.957 147.01 218.795 149.998 217.378C152.981 215.944 155.825 214.224 158.538 212.322C161.246 210.411 163.828 208.317 166.243 206.042C168.651 203.759 170.904 201.316 173.015 198.759C174.085 197.491 175.072 196.157 176.075 194.836C177.025 193.477 178.003 192.137 178.885 190.731C179.812 189.355 180.636 187.913 181.493 186.494L183.858 182.103C184.237 181.363 184.667 180.641 185.005 179.885L186.051 177.632C186.732 176.122 187.49 174.651 188.076 173.095L189.93 168.478L191.567 163.78C193.625 157.477 195.182 151.017 196.214 144.48C196.504 142.851 196.659 141.202 196.888 139.566C196.981 138.744 197.047 137.921 197.128 137.099C197.209 136.276 197.286 135.455 197.327 134.629C197.558 131.35 197.66 128.005 197.48 124.795L197.476 124.735L197.477 124.675C197.592 119.514 197.497 114.302 197.272 109.123C197.03 103.94 196.661 98.7638 196.07 93.6206C195.476 88.4794 194.671 83.3644 193.479 78.3633C192.267 73.3863 190.721 68.4369 188.222 64.1141C186.97 61.9723 185.449 60.0038 183.586 58.5775C183.121 58.2222 182.634 57.9075 182.131 57.6308C181.873 57.5073 181.627 57.3555 181.361 57.2527L180.966 57.0913L180.769 57.0098C180.79 57.0154 180.653 56.9684 180.803 57.0167L180.745 56.9995L180.627 56.965C180.01 56.7959 179.354 56.5689 178.769 56.4475C178.204 56.3757 177.67 56.2474 177.083 56.1998C174.707 55.9783 172.263 56.3005 169.896 56.9843C167.524 57.6653 165.221 58.6948 163.019 59.9265C158.605 62.3939 154.553 65.5762 150.739 69.0096C146.936 72.4652 143.371 76.2125 140.046 80.1518C138.366 82.1238 136.818 84.1282 135.319 86.2451C133.821 88.3586 132.325 90.479 130.879 92.6346C127.97 96.9353 125.179 101.318 122.478 105.756C119.806 110.211 117.212 114.712 114.763 119.294C113.528 121.579 112.36 123.898 111.175 126.209L109.472 129.712C108.898 130.878 108.334 132.047 107.803 133.231L106.176 136.771C105.629 137.949 105.151 139.156 104.635 140.347C104.133 141.54 103.605 142.74 103.126 143.929L101.69 147.568L95.9453 162.12L90.1472 176.652C89.1581 179.067 88.2458 181.506 87.3375 183.947L84.5666 191.259L84.3048 191.171L86.7947 183.75C87.6283 181.276 88.4661 178.802 89.3771 176.361L94.7318 161.66L100.14 146.98L101.493 143.31C101.96 142.07 102.456 140.871 102.936 139.649C103.429 138.437 103.885 137.207 104.408 136.007L105.965 132.401L106.747 130.6L107.579 128.821L109.247 125.265C110.409 122.919 111.554 120.564 112.766 118.244C115.169 113.591 117.72 109.018 120.349 104.49C123.008 99.9796 125.759 95.5222 128.633 91.1414C130.06 88.9444 131.54 86.7806 133.051 84.6333C134.552 82.4826 136.18 80.345 137.872 78.3357C141.249 74.2826 144.865 70.4303 148.761 66.8437C152.66 63.2647 156.891 59.9858 161.59 57.35C163.94 56.0404 166.433 54.9205 169.081 54.1608C171.72 53.4039 174.539 53.0085 177.367 53.2894C178.079 53.3528 178.823 53.5212 179.546 53.644C180.234 53.8 180.813 54.0104 181.452 54.1912L181.569 54.2264L181.627 54.2436C181.816 54.3078 181.716 54.2768 181.774 54.2975L182.029 54.403L182.538 54.6162C182.88 54.7556 183.193 54.9447 183.52 55.1082C184.157 55.4642 184.764 55.8658 185.332 56.306C187.606 58.0814 189.294 60.3557 190.651 62.712C193.342 67.4682 194.875 72.6121 196.09 77.7506C197.276 82.9055 198.051 88.1178 198.614 93.3383C199.176 98.5596 199.507 103.795 199.668 109.032C199.824 114.273 199.847 119.495 199.659 124.757L199.657 124.637C199.798 128.089 199.656 131.422 199.355 134.786C199.295 135.626 199.2 136.461 199.1 137.296C199 138.131 198.914 138.968 198.802 139.801C198.535 141.46 198.342 143.132 198.013 144.779C196.832 151.394 195.1 157.896 192.911 164.234C190.744 170.574 187.931 176.706 184.786 182.605L182.366 186.999C181.489 188.427 180.647 189.877 179.702 191.263C178.801 192.677 177.804 194.026 176.834 195.392C175.812 196.721 174.805 198.062 173.714 199.337C169.423 204.486 164.509 209.131 159.039 213.027C153.565 216.894 147.519 220.078 140.948 221.756C139.303 222.155 137.628 222.452 135.927 222.603C134.227 222.744 132.488 222.729 130.765 222.357C129.899 222.136 129.069 221.916 128.22 221.418C127.759 221.186 127.471 220.923 127.133 220.672C127.15 220.688 127.04 220.598 127.029 220.583L126.969 220.521L126.848 220.396L126.607 220.148C126.439 219.993 126.304 219.788 126.161 219.597C126.091 219.498 126.017 219.405 125.953 219.301L125.783 218.965C125.728 218.851 125.667 218.742 125.622 218.623L125.517 218.243C125.369 217.739 125.398 217.17 125.524 216.654C125.81 215.604 126.521 214.862 127.226 214.294C128.677 213.161 130.306 212.497 131.937 211.953C133.577 211.427 135.245 211.05 136.923 210.769C140.279 210.217 143.67 210.008 147.052 210.026C150.437 210.053 153.807 210.294 157.167 210.76C158.018 210.87 158.846 211.001 159.664 211.139L162.128 211.525C162.943 211.644 163.754 211.8 164.571 211.894L167.02 212.173C170.289 212.483 173.567 212.594 176.833 212.408C180.108 212.26 183.348 211.755 186.741 211.414C188.443 211.256 190.193 211.194 191.956 211.321C192.395 211.356 192.833 211.429 193.272 211.484C193.71 211.539 194.148 211.602 194.591 211.719L195.914 212.029C196.345 212.141 196.716 212.285 197.12 212.412C198.795 212.924 200.428 213.751 201.933 214.744C202.298 215.011 202.642 215.313 202.995 215.598L203.52 216.033C203.684 216.191 203.834 216.364 203.99 216.53C204.296 216.867 204.618 217.193 204.907 217.543L205.694 218.659C206.658 220.193 207.395 221.868 207.801 223.6C208.215 225.329 208.407 227.085 208.433 228.827C208.441 230.574 208.291 232.286 208.019 234.006C207.956 234.445 207.878 234.854 207.798 235.261L207.74 235.568L207.67 235.902C207.623 236.118 207.575 236.333 207.52 236.542C207.311 237.388 207.068 238.213 206.795 239.027C205.711 242.284 204.231 245.384 202.423 248.286C200.61 251.182 198.457 253.878 195.959 256.22C193.481 258.582 190.663 260.576 187.655 262.19C184.629 263.776 181.404 264.954 178.1 265.74C177.273 265.939 176.425 266.087 175.59 266.261L173.093 266.629C171.421 266.791 169.755 266.994 168.081 267.12L165.565 267.263C164.728 267.322 163.888 267.339 163.047 267.34L160.528 267.367L158.009 267.28C154.655 267.12 151.301 266.766 148.016 266.04C146.376 265.676 144.749 265.235 143.173 264.645C141.605 264.041 140.047 263.383 138.659 262.396L138.819 262.174Z" fill="black"/>
<path d="M204.093 242.812C204.093 242.812 205.672 241.896 208.189 239.993C209.442 239.039 210.928 237.842 212.521 236.357C214.102 234.864 215.818 233.115 217.473 231.038C218.324 230.019 219.128 228.896 219.925 227.714C220.294 227.111 220.71 226.492 221.091 225.898C221.285 225.571 221.479 225.242 221.675 224.909C221.857 224.584 222.032 224.258 222.225 223.935C223.694 221.274 225.152 218.367 226.336 215.21C227.52 212.059 228.358 208.628 228.589 205.09C228.704 203.323 228.662 201.534 228.435 199.769C228.186 198.008 227.74 196.277 227.077 194.661C226.398 193.052 225.509 191.551 224.364 190.317C223.791 189.703 223.198 189.114 222.52 188.635C222.341 188.509 222.156 188.34 221.989 188.243L221.491 187.928C221.18 187.709 220.777 187.531 220.424 187.332C217.461 185.825 214.06 185.272 210.8 185.172C209.163 185.138 207.544 185.156 205.96 185.283C205.168 185.355 204.384 185.419 203.613 185.527C202.838 185.607 202.075 185.718 201.324 185.834C198.321 186.326 195.504 187.011 192.945 187.789C190.378 188.55 188.08 189.439 186.062 190.283C184.049 191.14 182.338 191.996 180.933 192.721C179.53 193.452 178.457 194.089 177.729 194.53C176.997 194.971 176.607 195.205 176.607 195.205L176.438 194.987C176.438 194.987 176.78 194.681 177.42 194.107C178.07 193.542 179.051 192.746 180.35 191.788C181.655 190.842 183.29 189.748 185.265 188.658C187.236 187.56 189.542 186.457 192.147 185.46C194.759 184.489 197.663 183.589 200.826 183.001C202.403 182.685 204.048 182.469 205.739 182.344C207.431 182.217 209.175 182.186 210.948 182.317C214.473 182.573 218.208 183.278 221.587 185.185C222.002 185.448 222.415 185.658 222.827 185.976C223.243 186.274 223.661 186.572 223.972 186.869C224.72 187.499 225.365 188.244 225.965 189.008C227.14 190.568 227.95 192.347 228.502 194.154C229.062 195.964 229.359 197.824 229.46 199.667C229.59 201.51 229.555 203.342 229.43 205.147C229.167 208.758 228.557 212.274 227.742 215.641C226.916 219.005 225.818 222.208 224.363 225.074C224.182 225.437 223.988 225.794 223.798 226.144C223.606 226.478 223.415 226.811 223.226 227.139C222.799 227.83 222.392 228.461 221.965 229.096C221.084 230.329 220.197 231.496 219.269 232.548C217.405 234.646 215.507 236.382 213.709 237.761C213.256 238.1 212.818 238.428 212.394 238.744C211.956 239.039 211.533 239.322 211.126 239.594C210.302 240.119 209.543 240.595 208.826 240.974C207.411 241.758 206.254 242.282 205.452 242.605C204.647 242.923 204.206 243.064 204.206 243.064L204.093 242.812Z" fill="black"/>
<path d="M206.818 224.843C206.818 224.843 207.056 224.718 207.473 224.44C207.891 224.163 208.485 223.731 209.17 223.122C209.858 222.515 210.617 221.7 211.319 220.673C212.011 219.64 212.649 218.39 213.044 216.93C213.49 215.479 213.599 213.828 213.565 212.054C213.564 211.822 213.564 211.587 213.562 211.352C213.554 211.124 213.524 210.915 213.506 210.694C213.47 210.254 213.465 209.803 213.367 209.35C213.289 208.896 213.242 208.423 213.097 207.978L212.913 207.289C212.84 207.063 212.74 206.847 212.653 206.623C212.318 205.715 211.754 204.898 211.098 204.143C210.722 203.818 210.391 203.42 209.944 203.168L209.307 202.743C209.081 202.621 208.845 202.518 208.612 202.408C206.734 201.519 204.549 201.359 202.459 201.552C201.419 201.642 200.342 201.809 199.363 202.046C198.282 202.273 197.328 202.595 196.367 202.899C194.408 203.572 192.53 204.426 190.721 205.275C188.915 206.157 187.168 207.01 185.512 207.818C183.852 208.639 182.263 209.393 180.787 210.082C179.304 210.755 177.937 211.367 176.694 211.851C175.461 212.351 174.357 212.73 173.438 213.008C172.515 213.277 171.788 213.472 171.279 213.563C170.776 213.661 170.507 213.714 170.507 213.714L170.451 213.514C170.451 213.514 170.697 213.401 171.159 213.188C171.388 213.08 171.677 212.97 172.006 212.81C172.333 212.645 172.708 212.455 173.129 212.243C174.801 211.379 177.134 210.056 179.941 208.441C181.352 207.646 182.877 206.77 184.528 205.897C185.351 205.453 186.197 205.004 187.09 204.584C187.97 204.147 188.887 203.722 189.83 203.317C191.725 202.515 193.715 201.737 195.829 201.149C196.365 201.009 196.923 200.889 197.471 200.763C198.029 200.629 198.544 200.605 199.085 200.52L199.487 200.473C199.685 200.442 199.782 200.455 199.934 200.443L200.768 200.409C201.32 200.37 201.882 200.407 202.436 200.418C204.653 200.519 206.886 200.893 208.876 201.835C209.897 202.256 210.769 202.934 211.615 203.613C212.383 204.375 213.124 205.187 213.638 206.128C213.77 206.359 213.917 206.586 214.037 206.823L214.355 207.548C214.586 208.027 214.727 208.526 214.873 209.021C215.038 209.51 215.119 210.023 215.21 210.528C215.248 210.779 215.299 211.039 215.325 211.28C215.343 211.515 215.362 211.748 215.379 211.98C215.4 212.211 215.408 212.441 215.42 212.67L215.429 212.842L215.431 212.884L215.43 212.968L215.426 213.058L215.411 213.418C215.384 213.894 215.386 214.366 215.321 214.825C215.241 215.283 215.161 215.733 215.083 216.175C214.986 216.613 214.843 217.034 214.727 217.451C214.163 219.09 213.33 220.474 212.41 221.521C211.503 222.581 210.533 223.321 209.695 223.828C208.856 224.341 208.147 224.638 207.659 224.815C207.163 224.979 206.892 225.039 206.892 225.039L206.818 224.843Z" fill="black"/>
<path d="M135.99 242.558C135.99 242.558 135.96 242.662 135.949 242.881C135.936 243.098 135.936 243.427 136.017 243.847C136.148 244.688 136.647 245.893 137.697 247.113C138.731 248.345 140.319 249.541 142.282 250.608C142.527 250.741 142.777 250.877 143.031 251.014C143.291 251.132 143.556 251.252 143.825 251.373C144.091 251.466 144.361 251.561 144.635 251.657C144.915 251.745 145.214 251.82 145.507 251.902C146.701 252.207 147.997 252.377 149.351 252.531C152.068 252.795 155.051 252.853 158.206 252.723C159.784 252.661 161.405 252.554 163.064 252.412C164.721 252.258 166.408 252.025 168.114 251.719C171.51 251.108 175.036 250.141 178.153 248.292C181.361 246.548 183.23 243.03 183.811 239.533C184.064 237.775 183.946 235.961 183.259 234.421C182.932 233.648 182.486 232.939 181.92 232.34C181.347 231.746 180.674 231.26 179.949 230.858C178.466 230.099 176.791 229.689 175.092 229.546C173.39 229.4 171.669 229.494 169.989 229.693C168.308 229.887 166.651 230.216 165.052 230.563C164.232 230.754 163.421 230.944 162.62 231.13C161.813 231.302 161.027 231.486 160.257 231.675C157.163 232.391 154.259 233.202 151.573 233.902C148.895 234.635 146.46 235.377 144.352 236.18C142.24 236.969 140.471 237.855 139.146 238.775C137.803 239.675 136.942 240.633 136.503 241.363C136.401 241.55 136.31 241.716 136.231 241.858C136.169 242.007 136.133 242.139 136.095 242.242C136.027 242.45 135.99 242.558 135.99 242.558ZM135.788 242.512C135.788 242.512 135.824 242.398 135.893 242.178C135.93 242.069 135.965 241.927 136.027 241.768C136.105 241.617 136.197 241.441 136.3 241.243C136.742 240.468 137.615 239.476 138.916 238.46C140.223 237.452 141.925 236.377 143.974 235.335C146.022 234.297 148.39 233.222 151.04 232.243C153.694 231.274 156.609 230.374 159.747 229.58C161.313 229.143 162.907 228.793 164.551 228.412C166.24 228.051 167.962 227.703 169.765 227.563C171.559 227.402 173.411 227.349 175.294 227.565C177.168 227.784 179.098 228.269 180.847 229.273C181.705 229.802 182.507 230.444 183.18 231.219C183.848 232 184.358 232.909 184.705 233.864C185.391 235.794 185.342 237.854 184.925 239.744C184.495 241.645 183.701 243.422 182.611 244.998C182.344 245.415 182.073 245.755 181.77 246.144C181.448 246.505 181.129 246.868 180.763 247.173C180.42 247.508 180.029 247.775 179.66 248.07C179.267 248.328 178.885 248.604 178.479 248.834C176.875 249.794 175.178 250.52 173.481 251.17C171.776 251.799 170.067 252.356 168.358 252.808C164.939 253.705 161.552 254.313 158.306 254.537C155.059 254.743 151.954 254.665 149.126 254.161C147.71 253.928 146.371 253.563 145.127 253.116C144.817 252.992 144.514 252.882 144.213 252.753C143.913 252.609 143.619 252.468 143.328 252.33C143.06 252.172 142.797 252.018 142.536 251.867C142.291 251.696 142.049 251.528 141.812 251.364C139.915 250.041 138.421 248.661 137.413 247.342C136.421 246.011 135.916 244.773 135.789 243.887C135.712 243.446 135.717 243.099 135.735 242.867C135.744 242.751 135.756 242.661 135.768 242.599C135.78 242.536 135.788 242.512 135.788 242.512Z" fill="black"/>
<path d="M103.505 190.471C103.505 190.471 103.436 190.755 103.351 191.32C103.269 191.883 103.16 192.729 103.179 193.831C103.195 194.381 103.236 194.996 103.387 195.65C103.534 196.3 103.789 197.001 104.274 197.602C104.762 198.199 105.523 198.623 106.41 198.71C107.288 198.81 108.275 198.642 109.287 198.485C110.309 198.323 111.38 198.097 112.499 197.853C113.614 197.584 114.776 197.285 115.981 196.947C118.389 196.27 120.968 195.451 123.68 194.462C129.106 192.492 135.061 189.816 141.198 186.32C147.319 182.815 153.663 178.478 159.43 172.868C160.876 171.473 162.287 170.001 163.625 168.435C164.325 167.676 164.955 166.854 165.613 166.044C166.288 165.246 166.88 164.381 167.499 163.527C168.137 162.683 168.692 161.779 169.267 160.88C169.864 159.993 170.376 159.052 170.901 158.109C171.158 157.637 171.441 157.166 171.68 156.692L172.421 155.217C172.896 154.242 173.355 153.243 173.798 152.23C177.347 144.127 179.578 135.109 180.601 125.841C181.612 116.577 181.464 106.98 179.69 97.7288C179.231 95.4228 178.652 93.1438 177.89 90.9503C177.128 88.7657 176.17 86.6343 174.86 84.8748C174.214 83.9944 173.442 83.2547 172.609 82.7745C172.185 82.5557 171.753 82.4053 171.315 82.3356C170.875 82.2839 170.431 82.3218 169.984 82.4226C169.762 82.5019 169.537 82.5468 169.318 82.6606L169.034 82.7862L168.652 83.0063L167.122 83.8867C166.592 84.1669 166.141 84.4967 165.686 84.821L164.314 85.7863C160.657 88.5042 157.28 91.6658 154.099 94.8978C150.901 98.127 147.955 101.538 145.122 104.935C144.425 105.794 143.73 106.65 143.038 107.502C142.35 108.356 141.696 109.231 141.02 110.083C139.662 111.782 138.408 113.533 137.135 115.24C135.903 116.976 134.675 118.69 133.523 120.419C132.944 121.283 132.37 122.141 131.798 122.993C131.232 123.849 130.707 124.721 130.165 125.575C129.061 127.275 128.114 129.023 127.119 130.714C126.664 131.579 126.213 132.438 125.766 133.289L125.431 133.927L125.346 134.085L125.273 134.232L125.114 134.559C124.901 134.995 124.69 135.429 124.479 135.861C122.786 139.312 121.319 142.66 119.863 145.921C117.018 152.438 114.51 158.475 112.409 163.874C110.319 169.276 108.519 174 107.202 177.946C105.847 181.879 104.89 185.006 104.294 187.151C104.01 188.224 103.778 189.05 103.675 189.608C103.565 190.167 103.509 190.456 103.509 190.456L103.505 190.471ZM103.236 190.408C103.248 190.345 103.3 190.058 103.392 189.555C103.492 188.979 103.714 188.154 103.987 187.069C104.56 184.91 105.5 181.775 106.705 177.787C107.948 173.812 109.398 168.962 111.233 163.454C113.063 157.944 115.142 151.725 117.711 145.039C118.369 143.371 119.027 141.668 119.747 139.942C120.486 138.221 121.224 136.447 122.034 134.711C122.233 134.274 122.433 133.834 122.633 133.393L122.784 133.062L122.868 132.879L122.951 132.714L123.289 132.051C123.741 131.167 124.196 130.275 124.654 129.376C125.651 127.631 126.607 125.82 127.71 124.075C131.975 116.995 137.131 109.974 142.928 103.104C145.858 99.6946 148.898 96.2764 152.212 93.0272C155.525 89.7773 158.976 86.5833 162.912 83.8019L164.446 82.7848C164.958 82.4426 165.469 82.0976 165.988 81.8409L167.54 80.9998L167.929 80.7893C167.947 80.7776 168.099 80.7024 168.092 80.71L168.213 80.6596L168.454 80.5602C168.767 80.4153 169.122 80.3346 169.462 80.2353C170.169 80.0869 170.915 80.0448 171.649 80.1573C172.378 80.2863 173.063 80.5527 173.679 80.8997C174.882 81.6325 175.804 82.6178 176.535 83.6604C177.981 85.7697 178.88 88.0743 179.595 90.3955C180.303 92.7222 180.803 95.0875 181.181 97.4632C181.942 102.214 182.23 107.007 182.222 111.767C182.237 116.528 181.96 121.265 181.44 125.935C180.377 135.268 178.384 144.373 175.177 152.794C174.769 153.842 174.344 154.881 173.895 155.914C173.667 156.419 173.44 156.923 173.214 157.426C172.977 157.945 172.714 158.427 172.466 158.928C171.966 159.922 171.475 160.916 170.898 161.856C170.343 162.808 169.805 163.767 169.184 164.664C168.579 165.574 168.001 166.496 167.338 167.349C166.69 168.212 166.078 169.1 165.375 169.904C164.024 171.557 162.597 173.114 161.133 174.591C155.23 180.47 148.653 184.924 142.252 188.243C135.844 191.581 129.629 193.871 124.062 195.596C118.48 197.303 113.503 198.363 109.36 198.964C108.317 199.091 107.329 199.237 106.359 199.102C105.394 198.977 104.545 198.478 104.012 197.818C103.482 197.149 103.223 196.4 103.075 195.719C102.923 195.035 102.887 194.401 102.876 193.836C102.865 192.707 102.983 191.85 103.072 191.276C103.164 190.704 103.237 190.408 103.237 190.408L103.236 190.408Z" fill="black"/>
<path d="M149.132 68.3038C149.132 68.3038 149.136 67.5434 148.841 66.142C148.552 64.751 147.968 62.7272 146.75 60.3867C146.106 59.2365 145.374 57.9752 144.398 56.7249C144.157 56.4116 143.91 56.0928 143.659 55.7672C143.393 55.4532 143.103 55.1475 142.819 54.8288C142.527 54.5176 142.262 54.1733 141.941 53.8676C141.623 53.5599 141.299 53.2473 140.971 52.9292C139.657 51.6582 138.106 50.4714 136.433 49.2812C134.732 48.0895 132.902 46.9959 130.865 46.1258C128.85 45.2405 126.637 44.6154 124.35 44.585C122.063 44.5257 119.733 45.1163 117.553 46.2721C115.371 47.4313 113.336 49.1038 111.464 51.051C109.585 52.9975 107.883 55.2338 106.298 57.6136C104.717 59.9969 103.226 62.5174 101.886 65.1601C101.554 65.8218 101.221 66.4863 100.887 67.1522C100.567 67.8284 100.247 68.5066 99.9256 69.187C99.2867 70.5483 98.6237 71.9076 98.0173 73.2966C97.4068 74.6835 96.7568 76.0608 96.1732 77.4704C95.5917 78.8801 95.0081 80.2939 94.4238 81.7112C93.8906 83.1464 93.3553 84.585 92.8207 86.0243C92.2979 87.4678 91.8358 88.9334 91.3399 90.3858C90.8351 91.8355 90.4296 93.317 90.0014 94.7874C89.5808 96.2598 89.1264 97.7199 88.7866 99.2096C88.4129 100.688 88.0399 102.163 87.6677 103.635C87.3451 105.117 87.0233 106.595 86.7035 108.067C86.5426 108.803 86.3816 109.537 86.2214 110.269C86.0888 111.007 85.9569 111.744 85.825 112.479C85.5639 113.949 85.3035 115.411 85.0452 116.864C84.6073 119.785 84.2275 122.679 83.8621 125.524C83.5762 128.381 83.2958 131.19 83.0209 133.941C82.8427 136.701 82.6362 139.399 82.42 142.025C82.2611 144.656 82.1886 147.221 82.0463 149.7C81.8833 152.177 81.8578 154.577 81.8074 156.881C81.7473 159.186 81.6899 161.395 81.6347 163.495C81.6464 165.597 81.6119 167.593 81.6015 169.468C81.5864 171.345 81.5718 173.101 81.558 174.725C81.5781 176.349 81.5967 177.841 81.6133 179.188C81.6278 181.887 81.6388 184.007 81.6464 185.453C81.6395 186.9 81.6354 187.672 81.6354 187.672L81.3598 187.69C81.3598 187.69 81.2769 186.922 81.1222 185.484C80.9813 184.042 80.7755 181.93 80.5131 179.24C80.3777 177.894 80.2471 176.404 80.1208 174.779C80.0261 173.153 79.9232 171.393 79.8141 169.514C79.7098 167.633 79.5751 165.632 79.4812 163.52C79.4377 161.405 79.3907 159.183 79.3424 156.864C79.2139 152.224 79.3741 147.19 79.5434 141.869C79.6974 139.21 79.8714 136.477 80.0807 133.687C80.3473 130.901 80.6733 128.057 81.0207 125.169C81.4565 122.291 81.9089 119.365 82.42 116.415C82.7156 114.946 83.0133 113.468 83.3123 111.982C83.4629 111.24 83.6148 110.496 83.7661 109.751C83.9498 109.012 84.1342 108.271 84.3186 107.528C85.6675 101.56 87.7036 95.6657 89.9123 89.8815C92.1163 84.0861 94.7422 78.482 97.2493 72.9495C98.5098 70.184 99.7605 67.4406 100.996 64.7296C102.273 62.0282 103.568 59.3655 105.032 56.8332C106.489 54.2988 108.096 51.8818 109.951 49.6965C110.862 48.5919 111.87 47.5727 112.926 46.6205C114.002 45.687 115.166 44.861 116.391 44.151C118.862 42.7758 121.693 42.0099 124.405 42.1272C127.119 42.2107 129.626 42.9822 131.821 43.9882C134.016 44.997 135.965 46.2783 137.672 47.561C139.402 48.861 140.946 50.2251 142.271 51.632C144.944 54.4279 146.731 57.3514 147.808 59.892C148.879 62.4484 149.253 64.6068 149.388 66.0654C149.51 67.5275 149.406 68.3183 149.406 68.3183L149.132 68.3038Z" fill="black"/>
<path d="M140.675 77.0502C140.675 77.0502 140.531 76.6038 140.198 75.7861C139.868 74.9699 139.362 73.781 138.607 72.3403C137.852 70.903 136.842 69.2063 135.44 67.4999C134.031 65.8177 132.206 64.0934 129.826 63.048C128.649 62.5161 127.349 62.1255 125.955 62.0206C125.748 61.9896 125.616 62.011 125.462 62.0137C125.312 62.0199 125.161 62.0213 125.009 62.0172C124.683 62.0572 124.343 62.0751 124.009 62.1414C123.339 62.2794 122.662 62.474 121.995 62.7727C120.649 63.3289 119.338 64.2024 118.086 65.2395C116.833 66.2793 115.628 67.4834 114.506 68.8137C112.257 71.4729 110.325 74.6042 108.803 77.9631C107.402 81.3379 106.559 85.0673 105.691 88.716C105.274 90.5521 104.938 92.4075 104.559 94.2395C104.351 95.1517 104.222 96.0797 104.05 96.9947C103.877 97.9089 103.706 98.8204 103.535 99.7291C103.156 101.538 102.931 103.359 102.631 105.142C102.49 106.035 102.35 106.924 102.21 107.805C102.087 108.688 102.005 109.571 101.9 110.443C101.717 112.174 101.48 113.934 101.27 115.54C101.141 117.241 100.983 118.901 100.815 120.517C100.735 121.325 100.656 122.122 100.578 122.907C100.533 123.682 100.49 124.446 100.446 125.197C100.35 126.701 100.258 128.155 100.169 129.55C100.1 132.355 99.9595 134.936 100.001 137.221C100.017 138.363 99.9698 139.439 100.02 140.427C100.052 141.416 100.084 142.326 100.093 143.152C100.176 144.792 100.239 146.092 100.332 146.969C100.392 147.854 100.453 148.318 100.453 148.318L100.184 148.38C100.184 148.38 100.035 147.922 99.8144 147.058C99.5762 146.194 99.331 144.912 98.9974 143.274C98.728 141.631 98.3848 139.628 98.1907 137.313C97.8992 135.001 97.8453 132.383 97.7038 129.521C97.6975 128.087 97.7259 126.589 97.7369 125.038C97.7507 124.262 97.7652 123.473 97.7797 122.672C97.8343 121.885 97.8889 121.087 97.9448 120.276C98.0491 118.655 98.172 116.992 98.3295 115.294C98.5636 113.519 98.7854 111.826 99.0651 110.045C99.2039 109.163 99.3213 108.269 99.4802 107.376C99.6542 106.486 99.8303 105.59 100.007 104.688C100.184 103.787 100.362 102.88 100.54 101.969L100.812 100.6L101.141 99.2365C101.589 97.4169 102.021 95.5795 102.545 93.7586C103.107 91.9473 103.63 90.1209 104.23 88.3165C104.833 86.5136 105.403 84.7051 106.064 82.9311C106.365 82.0362 106.669 81.144 107.001 80.2594L107.475 78.9325L107.596 78.6041L107.743 78.2605L108.034 77.6167C109.607 74.2122 111.333 70.9506 113.329 67.9312C114.332 66.4256 115.439 65.0028 116.692 63.7277C117.317 63.0894 117.995 62.5036 118.699 61.9551C119.431 61.4397 120.179 60.9484 120.995 60.5682C122.627 59.814 124.401 59.3814 126.233 59.576C127.888 59.7505 129.451 60.2598 130.835 60.9332C133.608 62.3325 135.559 64.4225 136.908 66.3952C138.278 68.3762 139.103 70.2882 139.677 71.8725C140.252 73.4615 140.548 74.7504 140.726 75.6302C140.891 76.5134 140.942 76.9923 140.942 76.9923L140.675 77.0502Z" fill="black"/>
<path d="M82.411 187.75C81.1913 178.983 79.2912 170.235 76.8021 161.745C75.0595 155.802 72.9647 149.78 69.7131 144.476C66.5319 139.285 60.434 133.572 53.8492 135.116C49.0836 136.233 46.5585 141.522 46.0612 145.963C45.4382 151.518 46.4563 158.341 50.2225 162.697C52.6163 165.467 57.9994 166.844 59.7958 162.705C61.5971 158.555 58.6527 153.379 54.8264 151.596C53.6233 151.036 52.5707 152.821 53.7808 153.384C56.6139 154.704 58.4082 157.648 58.1886 160.782C57.9572 164.095 54.2898 163.534 52.4188 161.96C49.5173 159.518 48.5635 155.139 48.1705 151.567C47.7492 147.735 47.9992 143.819 50.0664 140.471C54.6559 133.036 63.4128 139.033 67.0485 144.187C70.5992 149.221 72.6691 155.306 74.458 161.142C77.1647 169.975 79.1386 179.147 80.4129 188.3C80.5966 189.618 82.5926 189.054 82.411 187.75Z" fill="black"/>
<path d="M78.0764 190.176C72.3197 182.144 62.363 176.703 52.4948 176.561C46.2961 176.473 38.6304 178.34 35.4319 184.199C33.0429 188.576 34.2716 193.97 36.9589 197.898C39.2326 201.221 42.5893 203.495 46.4743 204.506C50.5416 205.565 54.9432 204.175 56.5442 200.057C57.9704 196.387 56.9828 192.033 53.5501 189.886C51.5983 188.665 45.2746 187.43 44.8933 191.044C44.7531 192.371 46.8265 192.358 46.9653 191.044C46.9294 191.388 47.2685 191.011 47.6919 190.895C48.2541 190.739 48.8488 190.747 49.4262 190.767C51.0389 190.822 52.5915 191.506 53.7166 192.649C55.5634 194.527 55.4288 197.882 54.2664 200.052C51.0416 206.075 42.4055 201.323 39.3169 197.611C36.1592 193.816 35.0099 188.181 38.0122 183.984C39.9095 181.333 43.262 180.04 46.3064 179.31C50.3206 178.347 54.5564 178.433 58.5609 179.377C65.355 180.977 72.3888 185.783 76.2876 191.222C77.0577 192.296 78.8562 191.264 78.0764 190.176Z" fill="black"/>
<path d="M54.3036 154.948C55.6627 154.948 56.7645 153.848 56.7645 152.49C56.7645 151.132 55.6627 150.032 54.3036 150.032C52.9445 150.032 51.8428 151.132 51.8428 152.49C51.8428 153.848 52.9445 154.948 54.3036 154.948Z" fill="black" stroke="black" stroke-miterlimit="10"/>
<path d="M46.0157 194.537C47.3747 194.537 48.4765 193.437 48.4765 192.079C48.4765 190.721 47.3747 189.62 46.0157 189.62C44.6566 189.62 43.5548 190.721 43.5548 192.079C43.5548 193.437 44.6566 194.537 46.0157 194.537Z" fill="black" stroke="black" stroke-miterlimit="10"/>
<mask id="mask0_57_22" style="mask-type:luminance" maskUnits="userSpaceOnUse" x="0" y="0" width="518" height="345">
<path d="M518 0H0V345H518V0Z" fill="white"/>
</mask>
<g mask="url(#mask0_57_22)">
<path d="M137.157 262.716C140.987 265.693 145.566 267.839 149.956 269.827C163.473 275.945 177.952 279.862 192.467 282.77C213.887 287.063 235.568 289.069 257.389 287.5C277.35 286.065 297.325 282.169 316.163 275.361C323.891 272.569 331.467 269.221 338.537 265.018C344.016 261.76 349.343 257.873 353.437 252.943C357.495 248.054 362.126 238.454 353.856 235.066C346.637 232.109 337.245 235.742 330.904 239.232C321.658 244.32 314.132 252.722 311.281 262.985C308.084 274.492 311.057 289.093 319.314 297.893C327.083 306.172 339.177 307.024 349.804 305.914C378.338 302.933 404.614 288.615 433.335 286.695C446.589 285.81 461.899 289.398 470.303 300.518C476.666 308.939 476.279 321.013 469.058 328.804C465.989 332.116 461.767 334.224 457.21 334.172C452.296 334.116 445.071 331.229 444.717 325.567C444.323 319.277 450.961 314.027 455.681 311.113C459.4 308.816 463.496 307.209 467.714 306.099C472.815 304.756 478.093 304.56 483.329 304.195C492.657 303.544 502.167 303.223 511.326 301.195C517.767 299.768 523.765 296.994 527.826 291.646C528.904 290.226 526.503 288.854 525.441 290.252C521.45 295.508 515.096 297.658 508.855 298.896C499.607 300.732 490.023 300.955 480.643 301.623C471.279 302.291 462.448 303.822 454.286 308.728C449.024 311.892 443.389 316.836 442.148 323.152C440.938 329.312 445.501 333.518 450.788 335.598C455.552 337.472 460.647 337.295 465.251 335.076C474.33 330.699 478.671 319.767 477.338 310.181C475.425 296.436 461.784 287.951 449.317 284.993C436.581 281.971 422.843 284.774 410.392 287.825C395.914 291.373 381.797 296.228 367.334 299.831C355.796 302.704 342.599 305.639 330.913 301.926C319.152 298.19 313.631 285.908 312.889 274.345C312.157 262.943 317.576 252.636 326.335 245.576C332.725 240.425 341.821 236.117 350.237 236.983C352.728 237.239 355.039 238.325 355.649 240.468C356.58 243.734 353.885 247.925 351.891 250.482C347.956 255.529 342.58 259.363 337.142 262.632C329.984 266.935 322.253 270.257 314.402 273.066C295.31 279.897 275.039 283.628 254.83 284.91C232.925 286.3 211.104 283.916 189.674 279.379C175.889 276.461 162.099 272.545 149.33 266.506C146.62 265.224 143.956 263.83 141.401 262.262C140.763 261.871 140.133 261.464 139.516 261.039C139.357 260.929 138.474 260.267 139.111 260.763C137.722 259.686 135.752 261.624 137.157 262.716Z" fill="black"/>
</g>
<path d="M374.227 77.5098C374.227 77.5098 370.428 33.5795 346.83 25.9895C323.232 18.3995 311.721 74.6345 333.362 87.9743C333.362 87.9743 315.06 93.1493 314.484 105.109C313.908 117.069 326.225 136.619 352.01 118.794L358.226 112.469C358.226 112.469 358.456 123.969 368.471 134.778C378.485 145.588 390.111 141.794 393.335 131.444C396.558 121.094 392.414 106.833 391.033 103.728C391.033 103.728 421.653 91.6534 420.502 77.2786C419.351 62.9039 403.811 57.8434 373.767 85.2136L374.227 77.5098Z" fill="#D96191"/>
<path d="M343.261 41.4573C343.261 41.4573 338.829 42.1473 337.563 47.207C336.297 52.2668 336.815 64.9166 341.419 71.7593C346.024 78.602 349.189 83.7191 353.333 83.3741C357.477 83.0291 359.262 79.4066 355.175 66.2966C351.089 53.1866 351.722 40.4223 343.261 41.4573Z" fill="#F3B6D9"/>
<path d="M339.981 85.8477C339.981 85.8477 339.578 88.2055 345.161 89.4702C350.743 90.735 351.952 88.2055 351.895 86.998C351.837 85.7905 350.571 83.6632 345.391 83.6052C340.211 83.5473 339.981 85.8477 339.981 85.8477Z" fill="#F3B6D9"/>
<path d="M319.606 114.655C319.606 114.655 321.275 120.29 330.541 118.508C339.808 116.725 350.456 108.675 347.751 102.063C345.045 95.4505 330.196 101.718 330.196 101.718C330.196 101.718 316.555 106.088 319.606 114.655Z" fill="#F3B6D9"/>
<path d="M377.908 102.177C377.908 102.177 372.959 102.12 373.016 112.067C373.074 122.014 375.836 126.154 379.52 126.269C383.204 126.385 384.528 120.059 383.722 113.447C382.916 106.835 382.34 102.235 377.908 102.177Z" fill="#F3B6D9"/>
<path d="M377.018 95.3062C377.018 95.3062 376.845 97.2037 379.608 97.7212C382.37 98.2387 385.737 98.0662 385.133 95.91C384.529 93.7537 381.852 93.15 380.903 93.15C379.953 93.15 377.104 93.6675 377.018 95.3062Z" fill="#F3B6D9"/>
<path d="M385.651 90.39C385.651 90.39 388.5 94.7887 399.378 87.975C410.256 81.1612 406.544 76.1587 403.867 75.3825C401.191 74.6062 394.889 77.3662 390.14 81.3337C385.392 85.3012 384.011 87.975 385.651 90.39Z" fill="#F3B6D9"/>
<path d="M377.871 70.5594C377.871 70.5594 373.872 69.4443 371.546 74.6483C369.221 79.8523 372.941 82.5474 374.243 83.0125C375.545 83.4776 378.522 83.7556 380.476 79.2023C382.43 74.649 380.57 71.4888 377.871 70.5594Z" fill="black" stroke="black" stroke-width="1.0775" stroke-miterlimit="10"/>
<path d="M372.73 78.66C372.73 78.66 373.219 81.6788 360.096 97.5488C346.974 113.419 346.398 118.737 345.794 124.43C345.794 124.43 353.851 126.5 365.823 102.925C377.795 79.3493 376.414 81.0743 376.414 81.0743L372.73 78.66Z" fill="black"/>
<path d="M379.155 74.1067C379.155 74.1067 381.193 71.5158 385.069 67.2433C387.01 65.1105 389.417 62.5616 392.324 59.7754C395.232 56.9926 398.609 53.9325 402.697 51.0317C404.755 49.6048 407 48.211 409.634 47.2229C410.962 46.7682 412.43 46.3977 414.045 46.6116L414.649 46.7082C414.63 46.6992 414.76 46.7344 414.768 46.7385L414.83 46.7586L414.953 46.7979L415.2 46.8765C415.369 46.9352 415.519 46.969 415.705 47.0484L416.269 47.2995C416.662 47.4561 416.967 47.6907 417.315 47.8908C417.635 48.1241 417.956 48.3704 418.242 48.6478C419.395 49.7656 420.188 51.2077 420.613 52.7008C421.046 54.1995 421.193 55.7437 421.198 57.2762C421.189 60.3488 420.608 63.4 419.767 66.4001C418.914 69.4009 417.76 72.3534 416.339 75.2224C415.602 76.668 414.792 78.01 413.92 79.3956C413.463 80.0614 413.016 80.7369 412.538 81.3917C412.039 82.0307 411.583 82.7062 411.06 83.3299C409.025 85.8719 406.745 88.2552 404.238 90.4031C401.744 92.5656 399.009 94.4865 396.079 96.0742C393.152 97.6619 390.038 98.9577 386.8 99.7857C385.196 100.203 383.475 100.52 381.69 100.414C380.796 100.328 379.858 100.151 378.971 99.6008C378.528 99.3393 378.122 98.926 377.831 98.4285C377.54 97.9172 377.433 97.299 377.494 96.7125C377.636 95.5236 378.503 94.5645 379.543 94.1747C380.599 93.7917 381.718 93.9552 382.598 94.3423C383.482 94.7377 384.237 95.2938 384.845 95.9252C385.178 96.2253 385.427 96.5724 385.719 96.8953C385.985 97.2321 386.223 97.5812 386.474 97.9241C387.411 99.3338 388.1 100.798 388.735 102.315L389.163 103.405C389.302 103.775 389.426 104.173 389.557 104.555C389.834 105.328 390.017 106.094 390.234 106.863C391.801 113.048 391.426 119.438 389.64 124.979C388.763 127.76 387.546 130.355 386.029 132.661C384.493 134.947 382.691 137.009 380.401 138.418C380.104 138.582 379.825 138.762 379.51 138.895L379.279 139.001L379.164 139.054L379.106 139.081C379.066 139.096 379.115 139.081 379.003 139.123L378.572 139.269C378.286 139.366 378.002 139.461 377.719 139.557C377.419 139.643 377.088 139.706 376.777 139.778C376.142 139.944 375.53 139.998 374.925 140.06C374.321 140.153 373.718 140.105 373.126 140.118C370.755 140.071 368.558 139.446 366.676 138.557C365.711 138.15 364.883 137.56 364.065 137.043C363.316 136.425 362.545 135.891 361.949 135.22C361.637 134.901 361.324 134.594 361.034 134.282C360.77 133.946 360.513 133.618 360.261 133.296C359.729 132.676 359.35 131.998 358.971 131.37C358.785 131.054 358.588 130.756 358.428 130.45C358.281 130.137 358.139 129.832 358.002 129.538C357.743 128.942 357.433 128.413 357.267 127.87C357.082 127.337 356.909 126.845 356.752 126.393C356.673 126.168 356.598 125.953 356.527 125.748C356.463 125.542 356.424 125.339 356.376 125.151C356.017 123.645 355.825 122.841 355.825 122.841L356.027 122.794C356.027 122.794 356.279 123.573 356.752 125.034C356.814 125.215 356.868 125.41 356.943 125.61C357.026 125.806 357.113 126.013 357.205 126.229C357.388 126.661 357.586 127.133 357.802 127.642C357.995 128.161 358.333 128.657 358.62 129.219C358.771 129.496 358.926 129.781 359.087 130.075C359.261 130.36 359.471 130.635 359.668 130.926C359.869 131.215 360.076 131.513 360.287 131.818C360.487 132.131 360.769 132.391 361.011 132.693C361.264 132.986 361.521 133.287 361.785 133.594C362.074 133.876 362.384 134.149 362.691 134.436C363.279 135.043 364.028 135.504 364.747 136.047C365.532 136.49 366.317 137.002 367.223 137.331C368.989 138.078 371.014 138.513 373.146 138.512C373.677 138.482 374.22 138.516 374.756 138.413C375.297 138.342 375.847 138.278 376.353 138.126C376.615 138.057 376.869 138.01 377.141 137.925C377.421 137.822 377.703 137.718 377.986 137.612L378.411 137.454C378.335 137.485 378.416 137.449 378.411 137.451L378.456 137.428L378.547 137.382L378.729 137.292C378.975 137.183 379.208 137.02 379.448 136.88C381.344 135.646 382.975 133.714 384.326 131.56C385.663 129.383 386.802 126.957 387.579 124.335C388.374 121.721 388.847 118.933 388.983 116.071C389.032 114.639 388.997 113.189 388.864 111.732C388.705 110.279 388.49 108.817 388.151 107.365C387.96 106.65 387.794 105.905 387.557 105.211C387.441 104.857 387.342 104.509 387.213 104.147L386.802 103.05C386.252 101.674 385.613 100.263 384.808 99.0171C384.007 97.7861 382.997 96.6311 381.836 96.0963C381.262 95.8314 380.677 95.7755 380.199 95.9314C379.733 96.1039 379.373 96.5041 379.306 96.9416C379.246 97.3673 379.435 97.8027 379.939 98.1284C380.427 98.4582 381.122 98.6424 381.842 98.728C383.316 98.8563 384.867 98.6376 386.435 98.274C389.582 97.6081 392.644 96.4869 395.559 95.0627C398.466 93.6227 401.215 91.8445 403.745 89.8056C406.263 87.7521 408.555 85.4365 410.569 82.9304C412.588 80.4237 414.321 77.734 415.676 74.8919C417.014 72.0484 417.986 69.0752 418.689 66.1144C419.376 63.1536 419.798 60.1687 419.677 57.3024C419.614 55.8741 419.4 54.479 418.981 53.2045C418.584 51.9204 417.9 50.7992 417.005 49.9671C416.781 49.7587 416.529 49.5855 416.287 49.4033C416.024 49.2612 415.769 49.0604 415.507 48.9672L415.12 48.7892C414.989 48.7292 414.799 48.683 414.642 48.6298L414.395 48.5519L414.272 48.5132L414.209 48.4939C414.177 48.4829 414.265 48.5098 414.203 48.496L413.786 48.4387C412.666 48.2883 411.426 48.5739 410.25 48.9597C407.886 49.8132 405.7 51.1152 403.699 52.4759C399.672 55.1993 396.258 58.1518 393.265 60.7828C390.286 63.4386 387.766 65.8481 385.699 67.8422C383.634 69.8404 382.048 71.4502 380.969 72.5494C379.891 73.6513 379.316 74.2385 379.316 74.2385L379.155 74.1067Z" fill="black"/>
<path d="M372.874 101.99C372.867 101.99 372.818 101.969 372.693 101.968C372.57 101.962 372.378 101.985 372.146 102.078C371.679 102.261 371.079 102.774 370.611 103.626C370.116 104.459 369.733 105.596 369.456 106.924C369.174 108.258 368.981 109.769 368.78 111.445C368.603 113.103 368.359 114.901 368.164 116.801C367.974 118.7 367.733 120.71 367.727 122.799C367.725 124.873 367.964 127.083 368.912 129.033C369.403 129.981 370.073 130.872 370.985 131.382C371.883 131.917 372.947 132.043 373.984 131.882C374.259 131.842 374.56 131.826 374.816 131.766L375.526 131.551C375.765 131.506 375.981 131.35 376.205 131.252L376.536 131.088C376.645 131.032 376.732 130.941 376.831 130.872C377.016 130.715 377.237 130.61 377.392 130.422L377.875 129.895C378.134 129.485 378.422 129.105 378.594 128.635C378.822 128.208 378.921 127.698 379.078 127.233C379.156 126.726 379.297 126.249 379.322 125.73L379.394 124.971L379.415 124.203C379.441 123.695 379.416 123.182 379.395 122.674C379.342 121.659 379.257 120.653 379.13 119.669C379.08 119.177 378.992 118.69 378.919 118.209C378.859 117.726 378.784 117.25 378.698 116.78C378.613 116.299 378.547 115.865 378.448 115.396C378.358 114.934 378.269 114.479 378.182 114.031C378.004 113.152 377.832 112.302 377.667 111.486C377.325 109.85 376.984 108.351 376.562 107.057C376.149 105.762 375.672 104.664 375.14 103.851C374.624 103.026 374.061 102.489 373.617 102.24C373.167 101.997 372.887 102.016 372.892 101.994L372.894 101.99H372.874ZM372.914 101.781L372.912 101.787C372.903 101.808 373.229 101.785 373.727 102.041C374.216 102.299 374.832 102.83 375.46 103.622C376.08 104.42 376.748 105.451 377.417 106.692C378.076 107.935 378.755 109.381 379.347 111.007C379.487 111.416 379.641 111.83 379.777 112.26C379.903 112.694 380.032 113.137 380.163 113.586C380.294 114.034 380.393 114.482 380.505 114.943C380.62 115.394 380.722 115.906 380.822 116.378C381.039 117.346 381.209 118.355 381.327 119.398C381.455 120.438 381.553 121.512 381.548 122.618C381.55 123.171 381.554 123.727 381.504 124.295C381.483 124.577 381.472 124.86 381.441 125.145L381.315 126.006C381.255 126.58 381.065 127.158 380.937 127.736C380.72 128.305 380.572 128.892 380.242 129.436C379.982 130.001 379.577 130.508 379.181 131.007L378.46 131.658C378.224 131.879 377.918 132.013 377.65 132.189C377.509 132.266 377.377 132.361 377.228 132.419L376.778 132.58C376.473 132.675 376.192 132.817 375.865 132.849L374.917 132.999C374.615 133.027 374.345 133.006 374.057 133.013C372.851 133.046 371.562 132.753 370.569 132.031C370.06 131.695 369.628 131.264 369.272 130.794C368.893 130.337 368.612 129.824 368.347 129.313C367.358 127.228 366.947 125.01 366.629 122.874C366.327 120.729 366.24 118.628 366.355 116.652C366.483 114.676 366.744 112.828 367.164 111.147C367.551 109.48 368.078 107.957 368.612 106.657C368.877 106.005 369.171 105.411 369.437 104.864C369.736 104.329 370.02 103.848 370.307 103.429C370.889 102.596 371.545 102.076 372.07 101.876C372.593 101.667 372.948 101.799 372.932 101.79L372.914 101.781Z" fill="black"/>
<path d="M382.417 87.1491C382.423 87.1443 382.376 87.087 382.354 86.9166C382.341 86.8338 382.325 86.7316 382.307 86.6102C382.311 86.4929 382.315 86.357 382.321 86.2031C382.305 85.8898 382.421 85.5317 382.493 85.0949C382.593 84.6658 382.777 84.1966 382.948 83.6535C383.169 83.1347 383.446 82.5751 383.714 81.943C384.022 81.3345 384.4 80.7045 384.774 80.0034C385.14 79.2948 385.647 78.6324 386.12 77.8789C386.37 77.5098 386.627 77.1317 386.89 76.7446C387.158 76.372 387.441 76.0008 387.749 75.6192C388.936 74.0812 390.364 72.5514 391.955 71.0127C393.547 69.4768 395.36 67.9974 397.28 66.5353C399.212 65.0884 401.197 63.5904 403.367 62.2553C403.912 61.9248 404.474 61.6122 405.069 61.3403C405.667 61.0761 406.294 60.8221 407.042 60.8021C407.408 60.8028 407.858 60.8718 408.194 61.1809L408.322 61.2886C408.328 61.29 408.396 61.3762 408.375 61.3507L408.393 61.3748L408.428 61.4224L408.571 61.6143C408.663 61.7529 408.77 61.8454 408.848 62.0214C409.214 62.681 409.438 63.3192 409.605 63.9685C409.946 65.2719 410.069 66.6016 410.067 67.9215C410.084 68.5839 410.009 69.2381 409.971 69.8963C409.873 70.5456 409.81 71.2018 409.656 71.84C409.129 74.402 408.124 76.8846 406.49 78.9319C406.304 79.1996 406.072 79.4321 405.843 79.6667C405.609 79.9055 405.407 80.1297 405.139 80.3678C404.719 80.7279 404.174 81.1613 403.689 81.4945C402.707 82.1983 401.703 82.7848 400.707 83.3099C398.725 84.3705 396.785 85.2088 394.939 85.8291C393.095 86.4508 391.364 86.8896 389.824 87.225C388.282 87.5583 386.925 87.7687 385.8 87.8901C384.676 88.0026 383.768 87.9702 383.165 87.7804C383.017 87.7266 382.887 87.6618 382.782 87.5983C382.687 87.5127 382.595 87.4534 382.547 87.3809C382.461 87.2271 382.417 87.1491 382.417 87.1491ZM382.611 87.0759C382.629 87.0511 382.669 87.4002 383.236 87.5645C383.781 87.7245 384.665 87.7211 385.746 87.5017C386.832 87.303 388.124 86.9048 389.559 86.3363C390.999 85.7815 392.578 85.0418 394.277 84.2159C395.967 83.372 397.807 82.4868 399.662 81.4214C400.584 80.8832 401.514 80.3084 402.415 79.6874C402.879 79.368 403.249 79.0795 403.724 78.68L404.281 78.1398C404.474 77.9562 404.673 77.7775 404.835 77.5553L405.355 76.9198C405.522 76.7011 405.662 76.4562 405.82 76.225C406.149 75.7696 406.385 75.2438 406.665 74.7408C407.149 73.6913 407.587 72.5873 407.874 71.4205C408.186 70.2627 408.406 69.0614 408.519 67.8463C408.653 66.6333 408.674 65.392 408.497 64.1962C408.415 63.5966 408.256 63.0101 408.065 62.523C408.036 62.3953 407.912 62.2546 407.841 62.1207L407.714 61.9179L407.683 61.8668L407.667 61.8413C407.636 61.7985 407.691 61.8696 407.681 61.8592L407.627 61.8116C407.507 61.6584 407.282 61.5956 407.026 61.5715C406.497 61.5522 405.9 61.7336 405.338 61.953C404.774 62.1883 404.23 62.485 403.695 62.7941C401.572 64.0782 399.703 65.7087 398.004 67.3668C396.307 69.0359 394.75 70.7278 393.243 72.2941C391.735 73.8555 390.31 75.3321 388.994 76.6949C388.663 77.0378 388.34 77.3725 388.023 77.7009C387.722 78.0342 387.427 78.3599 387.139 78.6773C386.846 78.9947 386.561 79.3038 386.284 79.6039C386 79.902 385.734 80.198 385.509 80.5065C385.042 81.1123 384.576 81.6712 384.208 82.2239C383.864 82.7876 383.533 83.3078 383.284 83.7984C383.084 84.3056 382.845 84.7479 382.739 85.1591C382.656 85.5724 382.519 85.9223 382.539 86.2141C382.533 86.3583 382.526 86.4867 382.522 86.5971C382.537 86.7006 382.549 86.7875 382.56 86.8579C382.564 86.9966 382.619 87.0773 382.611 87.0759Z" fill="black"/>
<path d="M354.853 34.9009L354.815 34.8643C354.815 34.8643 354.737 34.7877 354.56 34.6718C354.387 34.549 354.103 34.3979 353.712 34.2654C353.32 34.1295 352.805 34.0681 352.208 34.1157C351.606 34.1674 350.955 34.4365 350.278 34.8098C348.943 35.6185 347.669 37.093 346.537 38.9498C346.246 39.4225 345.967 39.8806 345.694 40.4126C345.415 40.9322 345.115 41.4669 344.865 42.0176C344.328 43.105 343.824 44.2973 343.337 45.5386C342.396 48.033 341.501 50.7854 341.11 53.7827C341.017 54.5307 340.908 55.2904 340.896 56.0639C340.823 56.8374 340.852 57.6178 340.861 58.412C340.969 59.9858 341.156 61.617 341.681 63.1923L341.856 63.7912L342.086 64.3736C342.245 64.7606 342.384 65.1608 342.562 65.5445C342.951 66.3 343.326 67.0542 343.808 67.8008C344.721 69.2829 345.75 70.7319 346.85 72.1333C349.045 74.9388 351.602 77.5657 354.469 79.706C355.9 80.75 357.452 81.7139 359.031 82.1217C359.797 82.3398 360.605 82.3439 361.107 82.0865L361.259 82.0106C361.317 81.9844 361.359 81.9596 361.366 81.9409C361.403 81.9009 361.442 81.8699 361.487 81.8395C361.587 81.7229 361.7 81.6236 361.787 81.4759C361.976 81.2082 362.124 80.8673 362.237 80.4989C362.687 79.0036 362.718 77.2407 362.671 75.5488C362.608 73.8397 362.441 72.1354 362.238 70.4594C361.348 63.7201 360.518 57.4308 359.806 52.0398C359.425 49.3564 359.027 46.8952 358.567 44.7341C358.116 42.5716 357.619 40.7045 357.093 39.2093C356.584 37.7085 356.057 36.5721 355.611 35.8586C355.376 35.5164 355.206 35.2328 355.045 35.0989C354.951 35.0003 354.887 34.9354 354.853 34.9009ZM354.969 34.7263C355.003 34.7588 355.079 34.8312 355.2 34.9471C355.383 35.0955 355.56 35.3784 355.815 35.731C356.291 36.4568 356.835 37.596 357.461 39.0692C358.069 40.5513 358.759 42.3708 359.465 44.4919C360.163 46.6143 360.894 49.0342 361.523 51.7169C362.18 54.4031 362.612 57.3638 363.08 60.4385C363.324 61.9827 363.569 63.5725 363.782 65.2071C364.003 66.841 364.227 68.5142 364.374 70.233C364.532 71.9498 364.654 73.7072 364.668 75.5102C364.67 76.4127 364.645 77.3269 364.555 78.2577C364.458 79.1865 364.317 80.1394 363.963 81.0985C363.786 81.5766 363.555 82.0624 363.204 82.515C363.043 82.7455 362.821 82.9511 362.603 83.1519C362.465 83.254 362.319 83.352 362.173 83.4431C362.092 83.4962 362.034 83.5245 361.987 83.5424L361.833 83.6114C360.665 84.0958 359.545 83.9075 358.595 83.6094C356.688 82.9463 355.182 81.7892 353.764 80.5927C352.347 79.388 351.062 78.0645 349.845 76.6997C348.621 75.3418 347.461 73.9425 346.353 72.5218C345.239 71.1045 344.202 69.6541 343.185 68.201C342.675 67.4944 342.238 66.6995 341.76 65.955C341.54 65.57 341.36 65.1643 341.159 64.771L340.865 64.1769L340.628 63.5614C339.318 60.2908 338.958 56.778 339.307 53.5626C339.653 50.3369 340.631 47.4065 341.825 44.888C342.107 44.249 342.432 43.6473 342.761 43.0677C343.072 42.4805 343.428 41.9265 343.762 41.3848C344.09 40.8328 344.439 40.3422 344.772 39.8537C345.092 39.3652 345.462 38.8801 345.807 38.4434C347.195 36.6604 348.657 35.2783 350.1 34.4938C350.836 34.1315 351.544 33.9149 352.183 33.8618C352.819 33.821 353.368 33.8976 353.782 34.0487C354.197 34.1971 354.494 34.3627 354.679 34.4972C354.869 34.627 354.953 34.7125 354.953 34.7125L354.969 34.7263Z" fill="black"/>
<path d="M321.327 102.266C321.327 102.266 321.027 102.434 320.531 102.86C320.045 103.284 319.359 103.988 318.841 105.074C318.595 105.617 318.374 106.25 318.338 106.962C318.249 107.666 318.369 108.434 318.582 109.21C318.839 109.979 319.189 110.772 319.707 111.525C319.838 111.723 319.963 111.948 320.104 112.129C320.245 112.302 320.388 112.476 320.532 112.651C320.663 112.834 320.835 112.993 321.005 113.158C321.175 113.319 321.327 113.506 321.514 113.651C322.237 114.27 323.096 114.723 324.035 115.022C324.975 115.336 326.04 115.363 327.131 115.256C327.406 115.22 327.684 115.2 327.963 115.153C328.241 115.088 328.522 115.023 328.804 114.957C329.371 114.839 329.934 114.62 330.512 114.44C331.645 113.994 332.802 113.479 333.921 112.821C336.166 111.536 338.315 109.809 340.49 108.102C342.651 106.374 344.78 104.527 346.743 102.538C347.721 101.545 348.675 100.528 349.515 99.4601C349.947 98.9343 350.34 98.3899 350.692 97.8379C351.047 97.2893 351.361 96.7277 351.564 96.1667C351.767 95.6078 351.883 95.0544 351.817 94.5749C351.779 94.3368 351.73 94.1084 351.619 93.8987L351.544 93.7393C351.634 93.8856 351.559 93.7648 351.573 93.7903L351.556 93.7641L351.52 93.7117C351.499 93.6841 351.463 93.6254 351.454 93.6234C351.439 93.6365 351.468 93.6565 351.446 93.6406C351.413 93.6261 351.399 93.6034 351.359 93.5861C351.08 93.4205 350.482 93.3349 349.906 93.3363C349.316 93.3329 348.697 93.3929 348.079 93.4826C345.594 93.8573 343.166 94.5707 340.875 95.2276C338.585 95.9114 336.435 96.6414 334.426 97.261C332.421 97.8938 330.572 98.4658 328.949 99.0226C327.324 99.5718 325.92 100.091 324.789 100.572C323.652 101.041 322.778 101.453 322.196 101.759C321.61 102.062 321.336 102.261 321.336 102.261L321.33 102.265L321.327 102.266ZM321.23 102.084C321.294 102.038 321.58 101.836 322.089 101.56C322.67 101.24 323.528 100.788 324.624 100.218C325.723 99.6498 327.057 98.9598 328.587 98.1691C330.126 97.388 331.863 96.5007 333.805 95.6313C335.745 94.7543 337.902 93.9325 340.229 93.1686C341.391 92.7788 342.6 92.4138 343.861 92.1047C345.121 91.7914 346.424 91.5009 347.806 91.3491C348.498 91.2725 349.208 91.2228 349.959 91.2504C350.334 91.2629 350.723 91.3008 351.13 91.385C351.533 91.4685 351.969 91.5982 352.414 91.8763C352.523 91.9398 352.634 92.035 352.741 92.1185C352.851 92.2089 352.987 92.3648 353.092 92.4966C353.139 92.5587 353.145 92.5759 353.173 92.6173L353.287 92.8043L353.422 93.1107C353.605 93.5185 353.695 93.9704 353.735 94.4113C353.802 95.3063 353.571 96.1329 353.262 96.8526C352.626 98.2981 351.669 99.4269 350.683 100.481C349.68 101.527 348.6 102.464 347.508 103.374C345.31 105.18 343.049 106.864 340.883 108.595C339.8 109.46 338.722 110.314 337.691 111.198C336.647 112.062 335.616 112.965 334.521 113.745C333.444 114.555 332.298 115.249 331.119 115.856C329.911 116.401 328.675 116.894 327.358 117.057C326.062 117.224 324.709 117.217 323.485 116.785C322.262 116.382 321.19 115.686 320.384 114.845C320.172 114.645 320.007 114.41 319.822 114.198C319.64 113.982 319.47 113.764 319.33 113.517C319.185 113.28 319.041 113.045 318.899 112.814C318.767 112.585 318.683 112.368 318.575 112.148C318.13 111.234 317.87 110.289 317.714 109.398C317.441 107.585 317.897 105.994 318.518 104.907C319.163 103.813 319.886 103.129 320.391 102.695C320.9 102.266 321.221 102.089 321.221 102.089L321.23 102.084Z" fill="black"/>
<path d="M371.735 75.3018C371.735 75.3018 371.631 74.3013 371.437 72.4252C371.237 70.5497 370.94 67.8001 370.476 64.3128C370.003 60.8276 369.456 56.5924 368.604 51.7755C367.735 46.9662 366.7 41.5408 365.055 35.7862C364.233 32.9144 363.256 29.9522 361.928 27.0618C361.252 25.6259 360.497 24.2045 359.582 22.8921C358.66 21.5998 357.558 20.3971 356.225 19.6885C355.574 19.3338 354.825 19.1109 354.131 19.0757L353.472 19.0564C353.255 19.0516 353.02 19.0316 352.844 19.0688C352.462 19.1303 352.091 19.122 351.694 19.2241C350.094 19.5325 348.538 20.2694 347.11 21.2589C345.677 22.2456 344.366 23.48 343.159 24.8359C341.95 26.191 340.832 27.6649 339.784 29.2098C337.695 32.3072 335.875 35.6806 334.276 39.2024C333.47 40.9612 332.725 42.7621 332.034 44.5933C331.689 45.509 331.352 46.4308 331.034 47.3602C330.883 47.8184 330.704 48.3076 330.588 48.7423C330.483 49.2149 330.386 49.7 330.297 50.1823C329.596 54.0567 329.268 58.0394 329.391 62.0151C329.559 65.9819 330.204 69.9688 331.664 73.6354C333.114 77.2924 335.498 80.5665 338.68 82.7489L339.269 83.1657L339.887 83.5349C340.318 83.7971 340.75 84.053 341.167 84.2387L341.795 84.5471C342.008 84.6444 342.234 84.721 342.453 84.8093C342.673 84.8914 342.89 84.988 343.114 85.0598L343.787 85.2523C344.232 85.4054 344.692 85.4379 345.141 85.5372C345.592 85.5614 346.047 85.6345 346.487 85.5938C347.37 85.5669 348.24 85.3799 348.938 84.9832C349.619 84.5981 350.154 83.9744 350.154 83.4493C350.226 82.9463 349.79 82.4688 349.088 82.1445C348.381 81.8306 347.492 81.7195 346.606 81.6863C346.154 81.705 345.703 81.7001 345.246 81.7478C344.788 81.8112 344.333 81.834 343.876 81.9285C342.046 82.228 340.239 82.7869 338.481 83.4265L337.166 83.9171L335.872 84.4636C335.006 84.8107 334.169 85.2316 333.326 85.6221C326.611 88.9044 320.193 92.4255 315.11 96.8429C312.619 99.0661 310.507 101.609 309.537 104.449C309.068 105.865 308.875 107.335 309.002 108.782C309.126 110.23 309.506 111.644 310.03 112.99C311.142 115.678 312.507 118.183 314.43 119.942C316.334 121.733 318.589 122.958 320.849 123.646C323.11 124.357 325.365 124.559 327.428 124.46C329.495 124.348 331.372 123.925 333.009 123.38C336.293 122.251 338.528 120.56 339.93 119.342C340.631 118.722 341.146 118.218 341.47 117.858C341.801 117.503 341.973 117.32 341.973 117.32L342.132 117.452C342.132 117.452 341.972 117.647 341.66 118.026C341.356 118.412 340.869 118.954 340.198 119.63C338.843 120.951 336.647 122.799 333.298 124.153C331.628 124.82 329.678 125.336 327.504 125.535C325.334 125.722 322.934 125.603 320.475 124.932C318.026 124.276 315.49 123.074 313.341 121.121C312.804 120.636 312.29 120.11 311.81 119.541C311.327 118.97 310.855 118.318 310.486 117.73C309.682 116.436 308.975 115.127 308.354 113.67C307.749 112.219 307.275 110.64 307.093 108.959C306.905 107.279 307.088 105.505 307.607 103.823C308.126 102.134 309.017 100.576 310.066 99.1551C311.12 97.7323 312.349 96.4434 313.665 95.2393C314.986 94.0387 316.408 92.9409 317.875 91.8804C319.354 90.8357 320.894 89.8559 322.473 88.9106C325.629 87.0228 328.962 85.2888 332.409 83.6839C333.285 83.292 334.149 82.8725 335.055 82.5212L336.404 81.972L337.785 81.4766C339.637 80.8314 341.546 80.2643 343.559 79.9593C345.557 79.6764 347.696 79.4804 349.895 80.4043C350.165 80.552 350.44 80.6548 350.692 80.8749L351.072 81.1764C351.19 81.2944 351.299 81.4338 351.408 81.5649C351.642 81.8099 351.779 82.1742 351.917 82.4992C352.004 82.8587 352.077 83.2237 352.029 83.5873C351.975 84.3118 351.658 84.9625 351.241 85.4393C350.839 85.9492 350.328 86.29 349.812 86.5826C348.764 87.1408 347.624 87.3368 346.527 87.3485C345.972 87.3802 345.437 87.2891 344.895 87.2408C344.373 87.1194 343.83 87.0573 343.33 86.8765L342.568 86.6385C342.318 86.5522 342.079 86.4411 341.834 86.3425C341.591 86.2383 341.345 86.1465 341.106 86.0313L340.395 85.6621C339.903 85.422 339.481 85.1557 339.061 84.8873L338.399 84.4698L337.77 84.0034C334.393 81.5159 331.979 77.8996 330.604 74.0384C329.196 70.1661 328.674 66.0682 328.618 62.0351C328.537 57.9945 328.915 53.9759 329.666 50.0616C329.763 49.5717 329.864 49.0866 329.98 48.596C330.126 48.0785 330.28 47.6362 330.436 47.1574C330.749 46.2176 331.081 45.2875 331.421 44.3636C332.109 42.5178 332.835 40.6969 333.598 38.9022C335.152 35.328 336.826 31.8414 338.847 28.6019C339.858 26.9845 340.948 25.4251 342.156 23.9692C343.363 22.5133 344.695 21.1568 346.218 20.0231C347.733 18.8929 349.455 17.9717 351.34 17.5488C351.801 17.4225 352.326 17.4004 352.816 17.3307C353.077 17.2893 353.285 17.3052 353.507 17.3052L354.166 17.3121C355.224 17.3432 356.185 17.6316 357.064 18.0773C358.822 18.9791 360.059 20.4047 361.093 21.8206C362.108 23.264 362.919 24.7738 363.607 26.2918C364.971 29.334 365.937 32.3755 366.75 35.3121C368.319 41.2027 369.268 46.6889 369.942 51.5644C370.611 56.4406 371.072 60.7028 371.34 64.2211C371.894 71.257 371.94 75.29 371.94 75.29L371.735 75.3018Z" fill="black"/>
<path d="M375.024 72.1947C377.268 67.1729 377.828 61.223 377.71 55.801C377.613 51.3022 376.647 46.9862 375.448 42.6703C374.377 38.818 373.195 34.9236 373.427 30.8809C373.79 24.5688 379.696 16.6849 386.478 20.4185C390.182 22.4574 394.083 28.1906 391.574 32.3927C389.904 35.1872 383.752 36.6486 381.708 33.6113C380.965 32.5066 381.068 31.0176 381.709 29.9011C382.509 28.5087 384.085 28.3935 385.467 28.8696C386.312 29.1601 386.671 27.827 385.834 27.5386C382.015 26.2227 378.702 29.8176 380.148 33.5706C381.95 38.2481 389.245 36.8812 392.042 34.0273C395.296 30.7064 393.273 25.4534 390.818 22.3553C387.974 18.7694 383.049 16.6097 378.804 19.0771C374.962 21.3113 372.577 26.1758 372.084 30.4366C371.516 35.3473 373.399 40.3298 374.651 44.9921C376.885 53.3121 377.388 63.5428 373.832 71.4985C373.471 72.303 374.662 73.0061 375.024 72.1947Z" fill="black"/>
<path d="M377.712 73.2179C380.584 71.3011 381.932 66.6595 382.908 63.6269C384.286 59.3448 385.029 54.8853 386.347 50.5825C387.327 47.385 388.581 43.9019 391.145 41.6187C393.227 39.7661 396.882 39.5535 398.982 41.4717C400.779 43.1119 400.883 45.9692 400.254 48.1475C399.557 50.5625 397.52 52.3261 394.929 51.8776C393.266 51.5899 392.073 50.5418 392.114 48.8016C392.147 47.3795 393.364 46.0616 394.799 46.7392C395.599 47.1173 396.301 45.9278 395.496 45.5476C393.324 44.5215 391.404 45.8318 390.838 48.0398C390.158 50.6915 392.147 52.6587 394.563 53.2073C399.571 54.3458 402.433 48.9224 401.913 44.6513C401.271 39.3762 395.441 37.2489 391.088 39.9503C388.575 41.509 387.179 44.4449 386.112 47.078C384.443 51.2 383.58 55.6064 382.522 59.9078C381.68 63.3261 380.576 66.7816 378.762 69.8204C378.342 70.5221 377.409 71.7641 377.016 72.027C376.278 72.5183 376.969 73.7141 377.712 73.2179Z" fill="black"/>
<path d="M395.882 48.171C396.883 48.171 397.695 47.36 397.695 46.3597C397.695 45.3594 396.883 44.5485 395.882 44.5485C394.881 44.5485 394.069 45.3594 394.069 46.3597C394.069 47.36 394.881 48.171 395.882 48.171Z" fill="black"/>
<path d="M386.04 30.231C387.137 30.231 388.026 29.3428 388.026 28.2472C388.026 27.1516 387.137 26.2635 386.04 26.2635C384.943 26.2635 384.054 27.1516 384.054 28.2472C384.054 29.3428 384.943 30.231 386.04 30.231Z" fill="black"/>
<mask id="mask1_57_22" style="mask-type:luminance" maskUnits="userSpaceOnUse" x="0" y="0" width="518" height="345">
<path d="M518 0H0V345H518V0Z" fill="white"/>
</mask>
<g mask="url(#mask1_57_22)">
<path d="M348.054 120.248C339.293 130.166 331.899 142.063 327.229 154.423C323.891 163.257 322.05 173.162 324.624 182.435C327.661 193.379 336.917 200.682 347.027 204.923C354.746 208.161 363.07 210.124 371.347 211.273C378.549 212.274 385.863 212.47 393.085 211.548C404.112 210.139 414.691 205.926 423.167 198.661C429.372 193.341 434.396 186.294 436.79 178.44C438.273 173.571 439.086 167.032 435.051 163.141C427.211 155.581 414.751 159.903 407.986 166.588C399.258 175.212 396.613 188.888 398.692 200.657C400.412 210.394 406.085 219.205 414.884 223.944C427.114 230.531 442.141 228.169 454.714 223.961C464.439 220.706 473.691 215.954 482.602 210.927C489.607 206.974 496.378 202.587 502.679 197.584C509.468 192.194 516.23 185.744 520.075 177.839C520.991 175.956 521.974 173.722 522.029 171.579C522.064 170.243 519.992 170.246 519.957 171.579C519.948 171.953 519.93 171.897 519.924 171.93C519.834 172.513 519.688 173.087 519.521 173.653C518.861 175.887 517.767 177.964 516.536 179.947C510.819 189.161 501.733 196.229 492.863 202.195C484.814 207.609 476.246 212.236 467.52 216.455C459.058 220.547 450.1 223.85 440.784 225.312C429.08 227.149 416.379 225.189 408.132 216.041C401.507 208.692 399.333 198.245 400.33 188.62C401.605 176.33 409.576 162.427 423.156 161.303C427.159 160.971 432.104 162.256 434.491 165.582C435.78 167.38 435.971 169.795 435.878 171.981C435.574 179.128 431.738 186.112 427.283 191.515C420.702 199.497 411.561 204.931 401.657 207.726C387.052 211.848 371.405 210.127 356.976 206.153C345.273 202.93 333.033 196.996 327.846 185.34C323.921 176.521 325.392 166.331 328.34 157.47C331.26 148.696 335.874 140.503 341.048 132.872C343.655 129.025 346.429 125.24 349.495 121.741C349.503 121.731 349.511 121.721 349.52 121.711C350.4 120.715 348.94 119.246 348.054 120.248Z" fill="black"/>
</g>
</g>
<defs>
<clipPath id="clip0_57_22">
<rect width="518" height="345" fill="white"/>
</clipPath>
</defs>
</svg>
